<?xml version="1.0" encoding="UTF-8"?>
<svg xmlns="http://www.w3.org/2000/svg" version="1.1" viewBox="0 0 1021 324.6">
  <defs>
    <style>
      .cls-1 {
        fill: #da4268;
      }

      .cls-2 {
        fill: #fff;
      }
    </style>
  </defs>
  <!-- Generator: Adobe Illustrator 28.6.0, SVG Export Plug-In . SVG Version: 1.2.0 Build 709)  -->
  <g>
    <g id="Layer_1">
      <g id="Capa_1">
        <g>
          <g>
            <g>
              <path class="cls-2" d="M25.1,317.4c-8-4.3-14.1-10-18-17.1-4.1-7.1-6-14.7-6-23h0c0-9.8,2.4-18.2,7.1-25.2s11.3-12.3,19.6-15.9,17.8-5.5,28.4-5.5,13.2,1,19.5,3.1l7.6-1.8,5.3,27.5h-.7l-11.2-19.8c-3.7-1.5-7.1-2.5-10-3s-6.2-.8-10-.8c-12.2,0-21.4,3.8-27.9,11.2-6.4,7.4-9.6,17.4-9.6,30.1h0c0,8.2,1.4,15.4,4.2,21.6s7,11,12.5,14.5c5.6,3.5,12.3,5.3,20.1,5.3s6.5-.4,10.4-1.1c3.9-.8,7.4-1.9,10.4-3.4l11.2-19.8h.7l-5.3,28.3-7.6-2.5c-7.5,2.5-14.8,3.9-21.7,3.9-11.3,0-20.9-2.2-29-6.5h0ZM30.6,314.9c-11.1-8.6-16.7-21.1-16.7-37.6s5.6-29,16.7-37.5h0c-7.5,3.4-13.6,8-17.8,14-4.3,5.9-6.5,13.8-6.5,23.6h0c0,9.1,2.3,16.9,6.7,23.2,4.4,6.4,10.3,11.2,17.6,14.5h0s0,0,0,0v-.2Z"/>
              <path class="cls-2" d="M54,325c-11.4,0-21.3-2.3-29.4-6.6h0c-8.1-4.3-14.3-10.3-18.5-17.4-4.1-7.2-6.1-15.1-6.1-23.5v-.2c0-9.9,2.5-18.6,7.3-25.7,4.8-7.1,11.6-12.5,20-16.2s18.1-5.5,28.8-5.5,13.3,1,19.6,3.1l8.4-2,5.8,29.8h-2.5l-11.4-20c-3.5-1.3-6.7-2.4-9.4-2.8-2.8-.6-6.1-.8-9.8-.8-11.8,0-20.9,3.7-27.1,10.8-6.2,7.3-9.4,17.2-9.4,29.4h0c0,8,1.4,15.1,4.1,21.1,2.7,6,6.8,10.8,12.2,14.1s12,5.1,19.6,5.1,6.3-.4,10.2-1.1c3.7-.8,7-1.8,9.8-3.1l11.4-20h2.5l-5.8,30.6-8.4-2.8c-7.5,2.3-14.9,3.6-21.8,3.6h0ZM56.1,231.8c-10.4,0-19.8,1.8-28,5.4-8.1,3.5-14.5,8.8-19.1,15.6-4.6,6.8-7,15-7,24.5h0c0,8.1,2,15.7,5.8,22.6,3.9,6.9,9.8,12.4,17.6,16.7h0c7.8,4.2,17.4,6.3,28.5,6.3s14-1.3,21.4-3.9h.3l6.9,2.3,4.3-23-9.4,16.5h-.3c-3.1,1.6-6.6,2.7-10.6,3.6-4,.8-7.4,1.2-10.6,1.2-8,0-15-1.8-20.7-5.4-5.8-3.6-10.1-8.6-12.9-15-2.8-6.3-4.3-13.7-4.3-21.9h0c0-12.8,3.3-23.2,9.9-30.8s16.2-11.5,28.7-11.5,7.2.3,10.2.8c3,.6,6.4,1.6,10.2,3.1h.3l9.4,16.6-4.2-22.3-6.9,1.6h-.3c-6.1-2.1-12.6-3.1-19.2-3.1h0ZM31.7,316.6l-1.4-.7c-7.4-3.3-13.6-8.3-18.1-14.8s-6.9-14.5-6.9-23.8h0c0-10,2.3-18.1,6.7-24.2,4.4-6,10.6-10.9,18.2-14.4l1.4-.7v2.2l-.4.3c-10.8,8.3-16.3,20.7-16.3,36.7s5.5,28.6,16.3,36.9l.4.3v2.3h0ZM24.3,244.3c-4.2,2.8-7.8,6.1-10.7,10.1-4.1,5.8-6.3,13.5-6.3,22.9h0c0,8.9,2.2,16.5,6.5,22.6,2.8,4.1,6.3,7.5,10.4,10.3-7.4-8.3-11.2-19.4-11.2-33s3.8-24.6,11.3-32.9Z"/>
            </g>
            <g>
              <path class="cls-2" d="M186.5,322.6h-16v-.7l8.8-3.4-9.3-22.6h-45.5l-9.1,22.5,9,3.5v.7h-24v-.7l9.3-3.6,33.4-81.6-10-4.1v-.7h16.6l37,90.5-.2.2ZM147.2,240.3l-20.6,50.5h41.2l-20.7-50.5h.1ZM205.6,322v.7h-13.5l-37-90.5h5.7l35.3,86.3,9.5,3.6h0Z"/>
              <path class="cls-2" d="M206.6,323.7h-15.1l-37.8-92.5h7.8l.3.7,35.2,85.8,9.7,3.7v2.4h0ZM192.8,321.7h9.1l-6.5-2.5-35.2-86h-3.5l36.1,88.5ZM187.9,323.7h-18.5v-2.4l8.5-3.2-8.7-21h-44.1l-8.6,20.9,8.6,3.4v2.4h-25.9v-2.4l9.5-3.7,32.8-80.3-9.6-3.9v-2.4h18.2l37.8,92.4v.2ZM174.2,321.7h10.8l-36.2-88.5h-12.3l7.7,3.1-.4.9-33.6,82-6.4,2.5h16.6l-6.6-2.5,9.8-24h46.9l10,24.2-6.3,2.4h0ZM169.4,291.9h-44.2l22.1-54.2,22.2,54.2h-.1ZM128.1,289.8h38.3l-19.2-46.9-19,46.9h-.1Z"/>
            </g>
            <g>
              <path class="cls-2" d="M225.3,270.8c3.7,2.9,8.2,4.9,13.4,6.1,5.2,1.2,12.3,2.5,21.1,3.6,8.8,1.1,15.8,2.3,21.1,3.5,5.3,1.2,9.8,3.3,13.4,6.3s5.5,7.2,5.5,12.6-3.3,12.2-9.9,15.7c-6.6,3.6-14.8,5.4-24.8,5.4s-12.3-.7-18.5-2.1c-6.2-1.4-11.8-3.4-16.7-5.9l-6.2,6-5.2-32.3h.7l13.1,20.5c4,2.7,8.9,4.9,14.7,6.4,5.8,1.5,11.9,2.3,18,2.3s15.2-1.3,20.7-4.1c5.6-2.7,8.3-6.6,8.3-11.7s-1.3-6.5-4.1-8.6c-2.6-2.1-6-3.6-10-4.6-4.1-1-9.5-2-16.6-3l-3.8-.5c-8.7-1.3-15.8-2.7-21.3-4.2-5.6-1.5-10.1-4.1-13.8-7.7s-5.4-8.7-5.1-15.1v-.7c.2,5.1,2.2,9.1,5.8,12.1h.2ZM282,272.2c5.8,1.7,10.7,4.6,14.5,8.7,3.9,4.1,5.6,9.6,5.3,16.8-.3-5.8-2.4-10.5-6.4-13.7-4.1-3.3-8.9-5.6-14.5-7s-13.1-2.6-22.3-3.8c-8.5-1.1-15.1-2.3-20-3.3s-9-2.9-12.3-5.5c-3.3-2.5-5-6.1-5-10.8s1.8-8.9,5.3-12.3c3.5-3.5,8.1-6,14-7.9,5.8-1.8,12.1-2.7,18.7-2.7s11.4.7,17,2.1,10.5,3.4,14.8,6l6.2-5.9,5.2,32.3h-.7l-13.1-20.5c-3.4-2.8-7.6-5-12.7-6.5s-10.6-2.2-16.2-2.2-11,.8-16,2.2-9.1,3.5-12.1,6.1-4.6,5.8-4.6,9.3,1.2,5.1,3.8,6.8c2.5,1.7,5.8,2.9,9.5,3.8,3.9.8,9.1,1.8,15.8,2.7l3.9.5c9,1.4,16.3,2.9,22.1,4.6l-.2.2Z"/>
              <path class="cls-2" d="M265.1,325c-6.1,0-12.4-.7-18.7-2.1-6-1.3-11.5-3.2-16.3-5.7l-7.1,6.9-5.7-35.4h2.4l13.2,20.7c3.9,2.6,8.6,4.7,14.2,6.1,5.8,1.5,11.7,2.3,17.7,2.3s14.9-1.3,20.3-4c5.2-2.5,7.7-6.1,7.7-10.8s-1.2-5.8-3.6-7.7c-2.5-2-5.8-3.5-9.6-4.4-4-.9-9.5-2-16.5-3l-3.8-.5c-8.7-1.3-15.9-2.7-21.5-4.3-5.7-1.6-10.5-4.2-14.2-8-3.9-3.8-5.7-9.1-5.4-15.8v-.6h2c.2,5,2,8.8,5.5,11.5h0c3.6,2.8,7.9,4.8,13,5.9,5.2,1.2,12.3,2.5,21,3.6,8.8,1.1,15.9,2.3,21.2,3.5,5.5,1.2,10.1,3.4,13.8,6.5,3.9,3.2,5.8,7.6,5.8,13.4s-3.5,12.8-10.4,16.6c-6.5,3.4-15,5.3-25.1,5.3h.1ZM229.7,314.7l.7.4c4.8,2.5,10.4,4.5,16.4,5.8,6.1,1.3,12.3,2.1,18.3,2.1,9.7,0,17.9-1.8,24.3-5.3,6.3-3.4,9.3-8.3,9.3-14.8s-1.7-9.1-5.1-11.8c-3.5-2.8-7.8-4.9-13-6-5.3-1.2-12.4-2.4-21-3.5-8.9-1.2-16-2.5-21.2-3.7-5.4-1.2-10-3.4-13.8-6.3-.9-.8-1.8-1.5-2.5-2.5.8,1.7,1.8,3.2,3.1,4.5,3.5,3.5,8,6,13.3,7.5,5.5,1.5,12.6,2.9,21.2,4.2l3.8.5c7.1,1,12.7,2.1,16.7,3,4.1,1,7.6,2.6,10.4,4.8,2.9,2.3,4.4,5.4,4.4,9.3s-3,9.7-8.9,12.6c-5.7,2.7-12.8,4.1-21.2,4.1s-12.4-.8-18.2-2.3c-5.9-1.5-11-3.8-15.1-6.5h-.2l-11.4-18,4.3,27,5.4-5.4v.3ZM302.7,297.7h-2c-.3-5.7-2.3-9.9-6-13-3.9-3.2-8.7-5.5-14.1-6.8-5.7-1.3-13.1-2.6-22.3-3.8-8.5-1.1-15.2-2.3-20.1-3.3-5-1.1-9.2-3-12.7-5.7-3.6-2.7-5.4-6.7-5.4-11.5s1.9-9.3,5.6-13,8.4-6.3,14.3-8.1c5.8-1.8,12.3-2.7,19-2.7s11.6.7,17.3,2.1c5.4,1.3,10.2,3.3,14.4,5.8l7.1-6.7,5.7,35.4h-2.4l-13.3-20.7c-3.2-2.7-7.4-4.8-12.3-6.1-5-1.4-10.4-2.2-15.9-2.2s-10.8.7-15.7,2.1c-4.8,1.4-8.8,3.4-11.7,5.9-2.8,2.5-4.2,5.3-4.2,8.6s1.1,4.4,3.4,5.9c2.5,1.6,5.6,2.8,9.2,3.7,3.8.8,9.1,1.8,15.7,2.7l3.9.5c8.9,1.3,16.4,2.8,22.2,4.5h0c5.9,1.8,10.9,4.8,14.9,9,4.1,4.2,5.9,10.2,5.6,17.5h-.2ZM259,231.8c-6.5,0-12.7.9-18.4,2.6-5.7,1.8-10.2,4.3-13.6,7.6-3.3,3.3-4.9,7.1-4.9,11.6s1.5,7.5,4.6,9.9c3.2,2.5,7.2,4.2,11.9,5.3,4.8,1,11.5,2.2,19.9,3.3,9.2,1.1,16.8,2.4,22.4,3.8,5.8,1.4,10.8,3.9,15,7.2,1.1.8,2.1,1.9,2.9,2.9-.8-1.7-1.8-3.3-3.1-4.6-3.7-3.9-8.4-6.7-14.1-8.4-5.8-1.7-13.1-3.2-21.9-4.5l-3.9-.5c-6.7-.9-12.1-1.9-15.9-2.7-4-.8-7.3-2.2-9.9-4-2.8-1.9-4.2-4.4-4.2-7.6s1.7-7.2,4.9-10.1c3.2-2.7,7.4-4.9,12.4-6.3,5.1-1.4,10.6-2.2,16.3-2.2s11.3.8,16.5,2.3c5.3,1.5,9.6,3.8,13.1,6.7l.2.2,11.3,17.7-4.3-27.1-5.4,5.2-.7-.4c-4.2-2.6-9.1-4.6-14.5-5.9-5.5-1.2-11.1-2-16.8-2h.2Z"/>
            </g>
            <g>
              <path class="cls-2" d="M318.6,322l9.4-3.6v-81.9l-9.4-3.6v-.7h14.7v90.5h-14.7v-.8h0ZM338.5,232.1h14.8v.7l-9.4,3.6v81.9l9.4,3.6v.7h-14.7v-90.4h0Z"/>
              <path class="cls-2" d="M354.3,323.7h-16.8v-92.5h16.8v2.4l-9.4,3.6v80.6l9.4,3.6v2.4h0ZM339.6,321.7h10l-6.7-2.5v-83.4l6.7-2.5h-10v88.5h0ZM334.4,323.7h-16.8v-2.4l9.4-3.6v-80.6l-9.4-3.6v-2.4h16.8v92.5h0ZM322.4,321.7h10v-88.5h-10l6.7,2.5v83.4l-6.7,2.6Z"/>
            </g>
            <g>
              <path class="cls-2" d="M463.8,322.6h-6.9l-68.2-82.1v77.9l9.4,3.6v.7h-24.1v-.7l9.4-3.6v-81.9l-9.4-3.6v-.7h14.7l75.1,90.4h0ZM473,232.8l-9.4,3.6v78.1l-68.2-82.4h7l55.8,67.6v-63.4l-9.4-3.6v-.7h24.1v.8h0Z"/>
              <path class="cls-2" d="M465.9,323.7h-9.4l-66.7-80.3v74.4l9.4,3.6v2.4h-26.2v-2.4l9.4-3.6v-80.6l-9.4-3.6v-2.4h16.2l.3.4,76.4,92.1ZM457.4,321.7h4.2l-73.4-88.5h-10.6l6.7,2.5v83.4l-6.7,2.5h16.7l-6.7-2.5v-81.3l69.7,83.9h0ZM464.6,317.3l-71.3-86.2h9.6l.3.4,54.1,65.4v-59.9l-9.4-3.6v-2.4h26.1v2.4l-9.4,3.6v80.3h0ZM397.6,233.1l65,78.6v-76l6.7-2.5h-16.7l6.7,2.5v66.9l-57.3-69.4h-4.4Z"/>
            </g>
            <g>
              <path class="cls-2" d="M511.7,317.4c-8-4.3-14.1-10-18-17.1-4.1-7.1-6-14.7-6-23h0c0-8.4,2-16,6-23.1,4.1-7.1,10-12.7,18-17.1,8-4.3,17.6-6.5,29-6.5s20.9,2.2,29,6.5,14.1,10,18,17.1c4.1,7.1,6,14.7,6,23h0c0,8.4-2,16-6,23.1-4.1,7.1-10,12.7-18,17.1s-17.6,6.5-29,6.5-20.9-2.2-29-6.5ZM517.2,314.9c-11.1-8.6-16.7-21.1-16.7-37.6s5.6-29,16.7-37.5h0c-7.4,3.2-13.2,8-17.6,14.4s-6.7,14.1-6.7,23.1h0c0,9.1,2.3,16.9,6.7,23.2,4.4,6.4,10.3,11.2,17.6,14.5h0ZM559.8,313c5.2-3.8,9.1-8.8,11.8-15,2.6-6.2,4-13.1,4-20.7h0c0-7.6-1.3-14.4-4-20.7-2.6-6.2-6.5-11.2-11.8-15-5.2-3.8-11.6-5.7-19-5.7s-13.9,1.9-19,5.7-9.1,8.8-11.8,15-4,13.1-4,20.7h0c0,7.6,1.3,14.4,4,20.7,2.6,6.2,6.5,11.2,11.8,15,5.2,3.8,11.6,5.7,19,5.7s13.9-1.9,19-5.7ZM581.7,300.6c4.4-6.4,6.7-14.1,6.7-23.1v-.2c0-9.1-2.3-16.8-6.7-23.1-4.4-6.4-10.3-11.2-17.6-14.5h0c11.1,8.7,16.7,21.1,16.7,37.6s-5.6,29.1-16.7,37.6h0c7.4-3.1,13.2-8,17.6-14.3Z"/>
              <path class="cls-2" d="M540.7,325c-11.4,0-21.3-2.3-29.4-6.6h0c-8.1-4.3-14.3-10.3-18.5-17.4-4.1-7.2-6.1-15.1-6.1-23.5v-.2c0-8.4,2.1-16.3,6.1-23.5,4.1-7.2,10.3-13.1,18.5-17.4,8.1-4.3,18-6.6,29.4-6.6s21.3,2.3,29.4,6.6c8.1,4.3,14.3,10.3,18.5,17.4,4.1,7.2,6.1,15.1,6.1,23.5h0c0,8.5-2.1,16.4-6.1,23.6-4.1,7.2-10.3,13.1-18.5,17.4-8.1,4.4-18,6.7-29.4,6.7ZM540.7,231.7c-11,0-20.7,2.2-28.5,6.3-7.8,4.2-13.8,9.8-17.6,16.7-3.9,6.9-5.8,14.4-5.8,22.5h0c0,8.1,2,15.7,5.8,22.6,3.9,6.9,9.8,12.4,17.6,16.7h0c7.8,4.2,17.4,6.3,28.5,6.3s20.7-2.2,28.5-6.3c7.8-4.2,13.8-9.8,17.6-16.7,3.9-6.9,5.8-14.4,5.8-22.5h0c0-8.1-2-15.7-5.8-22.6-3.9-6.9-9.8-12.4-17.6-16.7-7.8-4.1-17.4-6.3-28.5-6.3ZM540.7,319.6c-7.6,0-14.3-2-19.6-5.8-5.4-3.9-9.4-9.1-12.1-15.5-2.6-6.3-4.1-13.4-4.1-21h0c0-7.6,1.3-14.7,4.1-21,2.7-6.4,6.8-11.6,12.1-15.5,5.4-3.9,12-5.8,19.6-5.8s14.3,2,19.6,5.8c5.4,3.9,9.4,9.1,12.1,15.5,2.6,6.3,4.1,13.4,4.1,21h0c0,7.7-1.3,14.8-4.1,21.1-2.7,6.4-6.8,11.6-12.1,15.5h0c-5.4,3.9-12,5.8-19.6,5.8h0ZM540.7,237c-7.3,0-13.5,1.8-18.5,5.5-5,3.6-8.9,8.5-11.4,14.6s-3.9,12.9-3.9,20.3h0c0,7.4,1.3,14.2,3.9,20.4,2.5,6,6.4,10.9,11.4,14.6,5,3.6,11.2,5.5,18.5,5.5s13.5-1.8,18.5-5.5h0c5-3.6,8.9-8.5,11.4-14.6s3.9-12.9,3.9-20.3v-.2c0-7.4-1.3-14.1-3.9-20.3-2.5-6-6.4-10.9-11.4-14.6-5.1-3.5-11.2-5.4-18.5-5.4ZM563.1,316.6v-2.2l.4-.3c10.8-8.3,16.3-20.7,16.3-36.9s-5.5-28.4-16.3-36.7l-.4-.3v-2.2l1.4.7c7.4,3.3,13.6,8.3,18.1,14.8s6.9,14.5,6.9,23.8h0c0,9.3-2.3,17.3-6.9,23.9-4.5,6.5-10.6,11.5-18.1,14.8l-1.4.6h0ZM570.6,244.5c7.4,8.3,11.2,19.3,11.2,32.8s-3.8,24.6-11.2,33c4.1-2.8,7.5-6.2,10.4-10.3h0c4.3-6.2,6.5-13.8,6.5-22.5v-.2c0-8.8-2.2-16.4-6.5-22.5-2.9-4.1-6.3-7.5-10.4-10.3ZM518.3,316.6l-1.4-.7c-7.4-3.3-13.6-8.3-18.1-14.8s-6.9-14.5-6.9-23.8h0c0-9.3,2.3-17.3,6.9-23.9,4.5-6.5,10.6-11.5,18.1-14.8l1.4-.7v2.2l-.4.3c-10.8,8.3-16.3,20.7-16.3,36.7s5.5,28.6,16.3,36.9l.4.3v2.3ZM510.8,244.5c-4.1,2.8-7.5,6.2-10.4,10.3-4.3,6.2-6.5,13.8-6.5,22.5h0c0,8.9,2.2,16.5,6.5,22.6,2.8,4.1,6.3,7.5,10.4,10.3-7.4-8.3-11.2-19.4-11.2-33s3.8-24.4,11.2-32.7h0Z"/>
            </g>
          </g>
          <g>
            <g>
              <path class="cls-1" d="M611.3,322.8h-6.5l59.9-85.9h-44.1l-14.9,17.9h-.8l5.7-23.2h64.2l-63.5,91.1h0ZM687.9,298.4l-6.8,24.5h-63.4l63.5-91.1h6.4l-59.8,85.9h43.2l16-19.2h.9Z"/>
              <path class="cls-1" d="M681.6,323.6h-65.2l64.5-92.5h8.1l-.8,1.1-59,84.8h41.6l16-19.2h2l-7.2,25.8h0ZM619,322.2h61.5l6.1-22.2-15.3,18.4h-44.9l.8-1.1,59-84.8h-4.7l-62.5,89.8h0ZM611.7,323.6h-8.2l59.9-85.9h-42.5l-14.9,17.9h-2l6.1-24.5h66l-64.3,92.5h0ZM606.1,322.2h4.8l62.4-89.7h-62.3l-5.2,21.1,14.4-17.2h45.8l-59.9,85.9h0Z"/>
            </g>
            <g>
              <path class="cls-1" d="M709.3,231.8h14.8v91.1h-14.8v-.7l9.5-3.7v-82.5l-9.5-3.7v-.7.2ZM801.3,298.4l-6.8,24.5h-65.2v-91.1h62.6l5.7,23.2h-.8l-14.9-17.9h-47.2v37.8h37.1l6.5-13.1h.7v31.2h-.7l-6.5-13h-37.1v37.8h49.8l16-19.2h.8v-.2Z"/>
              <path class="cls-1" d="M795.1,323.6h-66.4v-92.5h63.9l6.1,24.5h-2l-14.9-17.9h-46.3v36.3h35.9l6.5-13.2h1.8v32.7h-1.8l-6.5-13h-35.9v36.3h48.8l16-19.2h2l-7.1,26h0ZM730.1,322.2h64l6.1-22.2-15.3,18.4h-50.9v-39.1h38.2l6.1,12.1v-28.1l-6,12.2h-38.2v-39.1h48.3l14.4,17.2-5.2-21.1h-61.4v89.8h0ZM724.9,323.6h-16.2v-1.8l9.5-3.7v-81.5l-9.5-3.7v-1.8h16.2v92.5ZM711.4,322.2h12.1v-89.8h-12.1l8.2,3.1v83.4l-8.2,3.2h0Z"/>
            </g>
            <g>
              <path class="cls-1" d="M831.5,304.4c-2.9-6.6-4.4-13.8-4.4-21.7v-46.6l-9.5-3.7v-.7h14.8v53.5c0,4.8.3,9,.8,12.7s1.9,7.6,4,11.7c2.2,4.1,5.5,8,9.9,11.7-7.5-4.8-12.7-10.4-15.7-17h.1ZM855.6,320.1c-5.3-2.8-9.7-6.9-13-12.5-3.3-5.5-5-12.2-5-20v-56h14.9v.7l-9.5,3.7v51.8c0,6.8,1.4,12.6,4.2,17.4s6.5,8.5,11,11c4.5,2.4,9.3,3.7,14.4,3.7s9.8-1.2,14.2-3.5,8-5.8,10.8-10.5c2.7-4.6,4.1-10.2,4.1-16.7v-53.1l-9.5-3.7v-.7h24.3v.7l-9.5,3.7v53.2c0,7.4-1.6,13.8-4.8,19s-7.4,9.2-12.7,11.9c-5.2,2.7-10.8,4-16.7,4s-11.7-1.4-17.1-4.2h-.1Z"/>
              <path class="cls-1" d="M872.8,325c-6.1,0-12.1-1.4-17.5-4.2-5.5-2.8-9.9-7.1-13.3-12.7-3.3-5.6-5-12.5-5-20.4v-56.6h16.2v1.8l-9.5,3.7v51.3c0,6.6,1.4,12.4,4.1,17.1,2.7,4.7,6.3,8.3,10.7,10.7,4.4,2.3,9.1,3.6,14.1,3.6s9.6-1.2,13.8-3.5c4.3-2.3,7.8-5.7,10.4-10.2,2.7-4.5,4-10,4-16.4v-52.6l-9.5-3.7v-1.8h25.7v1.8l-9.5,3.7v52.8c0,7.6-1.6,14.1-4.9,19.4s-7.6,9.5-13,12.1c-5.2,2.7-10.9,4.1-16.8,4.1h0ZM838.4,232.4v55.3c0,7.6,1.6,14.2,4.8,19.6,3.2,5.3,7.5,9.5,12.7,12.2h0c5.3,2.7,11,4.1,16.8,4.1s11.3-1.3,16.4-4c5.1-2.6,9.3-6.5,12.4-11.7,3.1-5.1,4.7-11.4,4.7-18.7v-53.7l8.2-3.1h-20.2l8.2,3.1v53.6c0,6.6-1.4,12.3-4.2,17.1-2.8,4.8-6.5,8.4-11,10.8s-9.4,3.6-14.5,3.6-10.2-1.2-14.7-3.7c-4.6-2.5-8.4-6.3-11.3-11.2-2.9-5-4.3-10.9-4.3-17.8v-52.3l8.2-3.1h-12.2ZM846.8,321.9c-7.6-4.8-13-10.5-16-17.2h0c-2.9-6.7-4.4-14-4.4-22v-46.1l-9.5-3.7v-1.8h16.2v54.2c0,4.7.3,8.9.8,12.6.5,3.6,1.8,7.4,4,11.4,2.1,4,5.4,7.8,9.7,11.5l-.8,1.1ZM819.6,232.4l8.2,3.1v47.1c0,7.8,1.4,15,4.3,21.5h0c1.8,4,4.4,7.6,7.9,10.9-1.3-1.7-2.4-3.4-3.3-5.1-2.2-4.1-3.6-8.2-4.1-11.9s-.8-8-.8-12.8v-52.8h-12.2Z"/>
            </g>
            <g>
              <path class="cls-1" d="M938.9,270.6c3.7,2.9,8.2,5,13.4,6.2s12.3,2.4,21.3,3.7c8.9,1.1,15.9,2.3,21.3,3.5,5.3,1.2,9.9,3.3,13.4,6.3,3.7,3,5.5,7.2,5.5,12.7s-3.3,12.2-10,15.8-14.9,5.4-24.9,5.4-12.4-.7-18.6-2.1c-6.3-1.4-11.9-3.4-16.8-6l-6.3,6.1-5.2-32.6h.7l13.1,20.5c4,2.8,8.9,4.9,14.8,6.5,5.9,1.5,11.9,2.3,18.1,2.3s15.3-1.4,20.9-4.1,8.4-6.7,8.4-11.8-1.4-6.5-4-8.6c-2.7-2.1-6.1-3.7-10.1-4.6-4-1-9.6-2-16.7-3.1l-3.8-.5c-8.7-1.3-15.9-2.7-21.5-4.3-5.5-1.6-10.2-4.2-13.8-7.8s-5.4-8.7-5.2-15.2v-.7c.3,5.3,2.3,9.5,6,12.3h0ZM996,272.1c5.9,1.8,10.7,4.6,14.5,8.7s5.6,9.7,5.3,16.9c-.3-5.9-2.4-10.5-6.5-13.8-4-3.3-8.9-5.6-14.6-7-5.7-1.4-13.2-2.7-22.5-3.8-8.5-1.1-15.2-2.2-20.1-3.3s-9-2.9-12.4-5.5c-3.3-2.6-5-6.2-5-10.8s1.8-8.9,5.3-12.4,8.2-6.1,14-8c5.9-1.8,12.1-2.7,18.8-2.7s11.5.7,17.1,2.1,10.6,3.5,14.9,6.1l6.3-6,5.2,32.6h-.7l-13-20.5c-3.4-2.9-7.6-5-12.9-6.5-5.2-1.5-10.6-2.2-16.3-2.2s-11.1.7-16.1,2.2c-5,1.4-9.1,3.5-12.2,6.2-3.1,2.7-4.6,5.8-4.6,9.4s1.3,5.2,3.8,6.8,5.7,3,9.7,3.8c3.8.8,9.2,1.8,15.9,2.7l3.9.5c8.9,1.2,16.3,2.8,22.2,4.5h0Z"/>
              <path class="cls-1" d="M979,324.9c-6.2,0-12.5-.7-18.8-2.1-6.1-1.4-11.6-3.3-16.5-5.8l-6.8,6.7-5.5-34.6h1.8l13.2,20.7c3.9,2.7,8.7,4.8,14.5,6.3s11.9,2.3,17.9,2.3,15.1-1.4,20.6-4c5.4-2.6,8-6.3,8-11.2s-1.2-6.1-3.8-8c-2.6-2-5.9-3.5-9.9-4.5s-9.6-2-16.6-3.1l-3.8-.5c-8.7-1.3-16-2.7-21.6-4.3-5.6-1.6-10.4-4.2-14.2-8s-5.6-9.1-5.3-15.7v-.7h1.4c.2,5,2,9,5.6,11.7h0c3.7,2.8,8.1,4.9,13.2,6.1,5.2,1.2,12.3,2.4,21.2,3.7,8.8,1.1,16,2.3,21.3,3.5,5.4,1.2,10,3.4,13.8,6.5s5.7,7.6,5.7,13.2-3.5,12.7-10.3,16.4c-6.7,3.5-15.1,5.3-25.2,5.3h.1ZM943.5,315.2l.5.3c4.9,2.5,10.4,4.6,16.6,5.9s12.4,2.1,18.5,2.1c9.8,0,18.1-1.8,24.6-5.3,6.5-3.5,9.6-8.5,9.6-15.2s-1.8-9.3-5.2-12.1c-3.5-2.9-8-5-13.2-6.2-5.3-1.2-12.5-2.4-21.2-3.5-8.9-1.2-16.1-2.4-21.3-3.7-5.3-1.2-10-3.3-13.8-6.3-1.6-1.2-2.9-2.7-3.9-4.4.8,2.7,2.2,5.1,4.1,7,3.6,3.5,8.2,6.1,13.6,7.6,5.5,1.6,12.7,3,21.4,4.3l3.8.5c7.1,1,12.7,2.1,16.8,3.1s7.6,2.6,10.4,4.8c2.9,2.2,4.3,5.3,4.3,9.1s-2.9,9.5-8.8,12.4c-5.7,2.7-12.8,4.2-21.2,4.2s-12.3-.8-18.3-2.3c-5.9-1.5-11-3.7-15.1-6.5h0l-12.3-19.3,4.7,29.3,5.6-5.6v-.2ZM1016.5,297.8h-1.4c-.3-5.7-2.3-10.1-6.2-13.3-3.9-3.2-8.7-5.5-14.4-6.9s-13.2-2.6-22.4-3.8c-8.5-1.1-15.3-2.2-20.2-3.3-5-1.1-9.3-3-12.7-5.7-3.5-2.7-5.3-6.5-5.3-11.4s1.8-9.3,5.5-12.9c3.6-3.5,8.4-6.3,14.4-8.1,5.9-1.8,12.3-2.7,19-2.7s11.7.7,17.3,2.1c5.4,1.4,10.4,3.3,14.6,5.9l6.8-6.5,5.5,34.6h-1.8l-13.3-20.8c-3.3-2.7-7.5-4.9-12.5-6.3-5.1-1.4-10.5-2.2-16.1-2.2s-11,.7-15.9,2.2c-4.9,1.4-8.9,3.5-11.9,6.1-2.9,2.5-4.4,5.5-4.4,8.9s1.2,4.7,3.5,6.3c2.5,1.6,5.6,2.9,9.4,3.7,3.8.8,9.2,1.8,15.9,2.7l3.9.5c8.9,1.3,16.4,2.9,22.3,4.6h0c5.9,1.8,11,4.8,14.9,8.9,3.8,4.2,5.6,10,5.3,17.4h.2ZM972.9,231.1c-6.6,0-12.9.9-18.6,2.7-5.7,1.8-10.4,4.4-13.8,7.8-3.4,3.3-5.1,7.3-5.1,11.9s1.6,7.8,4.8,10.2c3.3,2.5,7.3,4.4,12.1,5.4s11.6,2.2,20,3.3c9.3,1.1,16.8,2.4,22.6,3.8s10.8,3.8,14.9,7.2c1.8,1.5,3.3,3.3,4.4,5.3-.8-2.9-2.2-5.3-4.2-7.4-3.8-4-8.5-6.8-14.3-8.5s-13.2-3.3-22.1-4.5l-3.9-.5c-6.8-1-12.1-1.9-16-2.7-3.9-.9-7.2-2.2-9.9-3.9-2.7-1.8-4.2-4.3-4.2-7.4s1.6-7.1,4.8-9.9c3.1-2.7,7.3-4.9,12.5-6.3,5.1-1.4,10.6-2.2,16.3-2.2s11.4.8,16.5,2.2c5.2,1.5,9.7,3.7,13,6.7h0c0,.1,12.2,19.2,12.2,19.2l-4.7-29.3-5.7,5.4-.5-.3c-4.2-2.6-9.2-4.7-14.7-6-5.3-1.3-11-2-16.8-2l.3-.2Z"/>
            </g>
          </g>
          <g id="LBYavo.tif">
            <path class="cls-1" d="M436.9,32.5c.4-.2.8-.2,1,0,10.4,2.1,19.8,5.8,27.4,12.5,2.4,2.1,4.4,4.4,6,6.9.7.9.3,1.3-.8,1.5-2.7.7-5.3.3-7.9-.3-.6-.2-1-.3-1.8-.6.3,3.5.6,6.7.9,10,.9,7,1.9,14.1,3.4,21.1,1.6,7.1,3.5,14.1,7,20.7,1.1,2.1,2.5,4.1,4.2,6,4.1,4.4,9.1,5.3,15.5,2.8,3.6-1.5,6.1-4,8-7,3.2-4.9,4.8-10.4,5.9-15.9,2.3-12,2.1-24.1,1.1-36.3-.2-2-.3-4.1-.7-6.2-4,2-7.8,3.9-12,6,6.1-18.1,12-35.8,18.1-53.5,0,0,.2,0,.2,0,6,17.7,12,35.6,18.1,53.6-4.1-2.1-7.9-4-11.9-6-.6,1.4-.4,2.8-.7,4.2-.9,10.5-1.1,20.9,0,31.5.8,6.7,2,13.4,5.2,19.8,1.7,3.4,3.8,6.6,7.5,8.7,4.1,2.4,8.5,3.6,13.5,1.6,2.6-1.1,4.4-3,5.9-5,3.3-4.5,5.3-9.5,6.9-14.6,2.6-7.9,4.1-15.9,5.2-24,.8-5.3,1.2-10.6,1.8-16v-1.3c-1.6.3-3.1,1-4.8,1.2s-3.4.2-5.1-.3c-.9-.2-.9-.6-.6-1.3,2.9-4.9,7.4-8.7,12.6-11.8,6.3-3.8,13.3-6.2,20.8-7.6.3,0,.8,0,1,0,0,0,0,.2,0,.2-5.1,6.6-8.1,13.9-10.5,21.3-3.1,9.4-4.8,19-5.9,28.7-1.1,10.8-1.5,21.4-1.2,32.2,0,3.4-.3,6.7-1.2,10-2,6.8-7.1,11.1-14.7,13.4-3.8,1.2-7.9,1.7-11.9,2.8-4.8,1.2-8.6,3.7-11.9,6.8-5.2,5.1-8,11.3-9.5,17.8-1.5,6.5-1.7,13-1.6,19.5,0,1.1-.4,1.4-1.6,1.3s-2.4,0-3.5,0-1.8.2-1.9-1.2c-.3,1.1-1,1.2-2,1.2-1.4,0-2.8,0-4.3,0-.8,0-.9-.2-.9-.8,0-3.7,0-7.5-.3-11.1-.8-8.7-2.7-17-8.6-24.3-2.8-3.5-6.4-6.2-10.8-8.2-2.6-1.2-5.4-1.5-8.3-2.2-3.5-.8-7.1-1.5-10.4-2.9-7.2-3.2-10.8-8.5-12-15.1-.9-5.6-.4-11.1-.6-16.6-.2-15.2-1.5-30.3-5.4-45.3-2.3-8.6-5.3-16.9-10.4-24.7-.4-1.2-1.1-2.1-1.8-3h0Z"/>
          </g>
          <g id="dX1kHp.tif">
            <g>
              <path class="cls-2" d="M1020.2,222.1c.6.1,1,.3.8.7h-.8c-.3-.2-.6-.3-.8-.5.2-.2.5-.1.8-.2h0Z"/>
              <path class="cls-2" d="M4.3,222.8c0-.4.3-.6.8-.7.3.1.6,0,.8.2-.5.2-.8.3-1.3.5h-.3Z"/>
              <path class="cls-2" d="M6,222.3c-.3-.1-.5-.2-.8-.2,6.8-3.5,14.6-5.9,22.6-8.1,20.1-5.4,41.3-9,62.5-12.2,21.1-3.1,42.5-5.5,64-7.6,14.8-1.5,29.4-2.8,44.2-4,12.5-1,24.7-1.8,37.2-2.7,14.4-1,29-1.8,43.4-2.6,12.5-.7,25-1.3,37.5-1.8,11.2-.5,22.6-.9,33.8-1.3,10.9-.4,21.9-.7,32.8-1,11.4-.3,22.9-.6,34.3-.8,10.9-.2,21.6-.3,32.5-.5,9.2-.2,18.2-.1,27.5-.2,22.1-.3,44.2-.2,66.3-.1,9.6,0,18.9.1,28.4.2,11,.1,22.1.3,33.1.5,11.4.2,22.9.5,34.3.8,13.6.4,27.3.8,40.8,1.3,12.6.4,25.3,1,37.9,1.5,11.8.5,23.7,1.1,35.4,1.8,14.4.8,29,1.7,43.4,2.7,15.1,1,30.1,2.1,45.1,3.4,19.8,1.7,39.6,3.7,59.4,5.9,21.8,2.6,43.4,5.4,64.6,9.4,14.6,2.8,29,5.9,42.5,10.4,4,1.4,8,2.9,11.5,4.7-.3.1-.5.2-.8.2-6.2-1.1-12.2-2.3-18.2-3.2-14.8-2.5-29.7-4.5-44.8-6.4-14.4-1.8-29-3.4-43.4-4.7-13-1.3-26-2.4-39-3.4-11.4-.9-22.9-1.8-34.3-2.5-10.9-.8-21.8-1.4-32.5-2.1-9.1-.5-18.2-1-27.5-1.5-7-.4-13.8-.7-20.9-1-9.4-.5-18.7-.8-28.1-1.2-6.5-.3-12.9-.5-19.3-.8-10.7-.4-21.6-.8-32.3-1.1-7-.2-13.6-.3-20.6-.5-11.7-.4-23.4-.6-34.9-.8-6.8-.1-13.3-.3-20.1-.4-10.4-.1-21-.2-31.5-.3-6.2-.1-12.3,0-18.4-.1-26-.5-51.8-.2-77.8-.1-6.5,0-13,0-19.6.2-8,.3-16.1.1-24.1.3-6.5.2-13,.1-19.5.3-7.6.2-15.2.3-22.9.5-10.3.2-20.8.4-31,.8-6.5.2-13,.3-19.5.6-9.7.5-19.2.5-28.9,1.1-4,.3-8.1.2-12.2.4-7,.3-13.8.7-20.9.9-4.7.1-9.4.4-14,.6-8.6.4-17,.9-25.6,1.4-4.4.2-8.9.4-13.3.7-9.1.5-18.2,1.1-27.1,1.7-8,.5-16.1,1-24.1,1.6-10.1.8-20.3,1.6-30.4,2.4-12.6,1-25,2.2-37.5,3.4-10.3,1-20.4,2.1-30.5,3.4-15.4,1.8-30.7,3.9-45.8,6.4-7.8,1.1-15.4,2.5-22.9,3.7h0Z"/>
            </g>
          </g>
        </g>
      </g>
    </g>
  </g>
</svg>