<?xml version="1.0" encoding="UTF-8"?>
<svg xmlns="http://www.w3.org/2000/svg" version="1.1" viewBox="0 0 800 524.6">
  <defs>
    <style>
      .cls-1 {
        fill: #fff;
      }
    </style>
  </defs>
  <!-- Generator: Adobe Illustrator 28.7.5, SVG Export Plug-In . SVG Version: 1.2.0 Build 176)  -->
  <g>
    <g id="Layer_1">
      <g id="SVGRepo_iconCarrier">
        <g id="icons">
          <g id="ui-gambling-website-lined-icnos-casinoshunter">
            <g id="_x31_">
              <path id="casino-cards" class="cls-1" d="M596.4,60.1l166.4,44.3c25.9,6.9,41.6,32.9,36.2,59l-.7,2.9-85.9,318.4c-7,26.1-33.1,42-59,36.7l-2.9-.7-205.9-54.8h68.7c44.7,0,81.2-35.5,83.1-80v-3.6c0,0,0-42.9,0-42.9l53.7-33.3,2.8-1.8c8.1-5.7,14-14,16.6-23.7,2.9-10.8,1.4-22.2-4.1-31.9-5.5-9.6-14.6-16.6-25.3-19.5-8.7-2.3-17.9-1.7-26.2,1.6l-3.1,1.4-1.6-2.2-2.2-2.6c-3.1-3.4-6.6-6.2-10.6-8.4V60.1ZM203,60.2v159c-3.7,2.2-7.1,4.9-10,8.1l-2.2,2.6-1.6,2.2c-9.1-4.5-19.5-5.6-29.3-3-10.7,2.8-19.8,9.9-25.3,19.5s-7,21.1-4.1,31.9c2.6,9.6,8.5,18,16.6,23.7l2.8,1.8,53.1,33v43.3c0,45,35.3,81.7,79.6,83.6h3.6c0,0,69.3,0,69.3,0l-205.9,54.8c-26.9,7.2-54.6-9-61.9-36L1.8,166.3c-7.3-27.1,8.6-54.8,35.5-61.9l165.8-44.1ZM520.7,1.8c28.3,0,51.2,22.7,51.2,50.8v330.3c0,28.1-22.9,50.8-51.2,50.8h-230.3c-28.3,0-51.2-22.7-51.2-50.8V52.6c0-28.1,22.9-50.8,51.2-50.8h230.3ZM507.9,357.5h-25.6c-7.1,0-12.8,5.7-12.8,12.7s4.8,11.7,11.1,12.6h1.7c0,.1,25.6.1,25.6.1,7.1,0,12.8-5.7,12.8-12.7s-5.7-12.7-12.8-12.7ZM633.5,253.7c4.2,1.1,7.9,3.9,10.1,7.7,2.2,3.8,2.8,8.4,1.6,12.6-.8,2.9-2.4,5.6-4.5,7.7l-1.7,1.5-1.6,1.1-40.9,25.3v-52.2l1.1,1.2c3.1,2.9,7.6,4,11.7,3l1.8-.6,1.4-.7,8.5-4.9,2-1c3.4-1.4,7.1-1.7,10.6-.7ZM177.2,254.4l2,1,8.5,4.9,1.4.7c4.9,2.1,10.5.9,14-2.9v51.2s-40.3-25-40.3-25l-1.6-1.1c-3.1-2.3-5.3-5.5-6.3-9.2-1.2-4.3-.6-8.8,1.6-12.6,2.2-3.8,5.8-6.6,10.1-7.7,3.5-.9,7.3-.7,10.6.7ZM433.5,154.3c-8.2,0-16.2,2.4-22.9,6.7l-2.8,2-2.2,1.8c-7.7-6.7-17.6-10.4-27.9-10.4s-22,4.4-30,12.3-12.4,18.6-12.4,29.8,3.6,19.6,10,27.2l2.3,2.4,48.8,51.3c2.4,2.5,5.8,4,9.3,4s5.8-1,8-2.8l1.3-1.2,48.9-51.4c7.8-7.8,12.2-18.4,12.2-29.5s-4.5-21.9-12.4-29.8c-8-7.9-18.7-12.3-30-12.3ZM142.7,277.3l.7,2.1-.2-.5-.5-1.6ZM657.3,277.3l-.5,1.6-.2.5.7-2.1ZM146.3,253.7l-.4.7.2-.3.2-.4ZM653.6,253.7l.2.4.2.3-.4-.7ZM433.5,179.7c4.5,0,8.8,1.8,11.9,4.9,3.2,3.1,4.9,7.4,4.9,11.8s-.8,6-2.4,8.6l-1.3,1.9-1.4,1.5-39.7,41.8-39.7-41.8-1.3-1.5c-2.4-3-3.7-6.7-3.7-10.5s1.8-8.7,4.9-11.8,7.4-4.9,11.9-4.9,7.3,1.2,10.2,3.4l1.7,1.5,7,6.9,1.2,1.1c4.5,3.5,10.8,3.5,15.4.2l1.5-1.2,7-6.9,1.4-1.3c3-2.3,6.7-3.6,10.5-3.6ZM348,196.4v2.3c0,0,0-.6,0-.6v-1.7ZM358.4,174l-1.7,1.6c.6-.6,1.1-1.1,1.7-1.6ZM87,143.6l-24.4,6.5c-6.7,1.8-10.7,8.7-8.9,15.5,1.7,6.2,7.6,10.1,13.8,9.3l1.7-.3,24.4-6.5c6.7-1.8,10.7-8.7,8.9-15.5-1.8-6.8-8.8-10.8-15.5-9ZM697.5,152.6c-1.7,6.2,1.5,12.5,7.3,14.9l1.6.6,24.4,6.5,1.7.3c6.2.8,12.1-3.1,13.8-9.3,1.7-6.2-1.5-12.5-7.3-14.9l-1.6-.6-24.4-6.5c-6.7-1.8-13.7,2.2-15.5,9ZM427.4,167.6l-3.1.8,2.3-.7.7-.2ZM429.1,167.3l-1.7.3h.3c0,0,1.4-.3,1.4-.3ZM328.8,52.6h-25.6c-7.1,0-12.8,5.7-12.8,12.7s4.8,11.7,11.1,12.6h1.7c0,.1,25.6.1,25.6.1,7.1,0,12.8-5.7,12.8-12.7s-5.7-12.7-12.8-12.7Z"/>
            </g>
          </g>
        </g>
      </g>
    </g>
  </g>
</svg>