<?xml version="1.0" encoding="UTF-8"?>
<svg id="Layer_1" xmlns="http://www.w3.org/2000/svg" version="1.1" viewBox="0 0 256 256">
  <!-- Generator: Adobe Illustrator 29.5.0, SVG Export Plug-In . SVG Version: 2.1.0 Build 137)  -->
  <defs>
    <style>
      .st0 {
        fill: #fff;
        stroke: #fff;
        stroke-miterlimit: 6.25;
      }
    </style>
  </defs>
  <g id="SVGRepo_iconCarrier">
    <path class="st0" d="M228.95,59.99l-73.95-19.74v-16.86c0-10.1-7.66-18.31-17.79-18.31H45.65c-10.12,0-18.93,8.22-18.93,18.32v160.37c0,10.1,8.79,18.32,18.89,18.32h31.76l-.55,2.05c-1.27,4.73-.61,9.67,1.85,13.91,2.45,4.23,6.41,7.26,11.15,8.53l88.44,23.7c1.59.43,3.19.63,4.76.63,8.1,0,15.53-5.4,17.72-13.57l41.36-154.91c2.61-9.76-3.36-19.83-13.14-22.45ZM79.82,192.93h-34.21c-5.05,0-9.73-4.11-9.73-9.15V23.4c0-5.05,4.7-9.16,9.77-9.16h91.56c5.07,0,8.63,4.1,8.63,9.15v14.4l-5.32-1.5c-9.78-2.62-19.72,3.18-22.34,12.94l-2.64,10.11-15.96-20.44c-.87-1.11-2.18-1.76-3.59-1.76s-2.73.65-3.6,1.76l-41.23,52.69c-1.3,1.66-1.3,3.99,0,5.65l40.44,51.68-11.79,44ZM112.66,70.37l-18.08,67.48-33.98-43.42,35.42-45.25,16.32,20.85c.1.13.22.23.33.34ZM233.38,80.07l-41.51,154.91c-1.31,4.88-6.36,7.77-11.26,6.46l-88.44-23.7c-2.38-.64-4.36-2.16-5.59-4.28-1.23-2.12-1.56-4.58-.92-6.95L127.17,51.61c1.31-4.88,6.36-7.77,11.26-6.46l88.44,23.7c4.9,1.31,7.82,6.35,6.52,11.22Z"/>
    <path class="st0" d="M188.14,108.53c-6.82-1.83-14.1-.77-20.15,2.73-3.49-6.06-9.26-10.61-16.09-12.44-14.2-3.81-28.91,4.84-32.77,19.27-2.24,8.34,4.66,23.23,10.84,34.25,3.07,5.47,13.59,23.45,20.25,25.24.52.14,1.12.21,1.77.21,7.65,0,23.42-8.99,28.38-11.94,10.86-6.45,24.28-15.9,26.51-24.24,3.87-14.43-4.54-29.27-18.75-33.08ZM197.65,139.13c-.78,2.92-7.68,9.72-20.97,17.78-11.61,7.04-21.06,10.82-23.96,11.3-2.27-1.87-8.56-9.86-15.1-21.77-7.48-13.62-10.05-22.96-9.27-25.88,2.11-7.86,9.13-13.08,16.74-13.08,1.43,0,2.88.18,4.32.57,5.83,1.56,10.3,6.04,11.95,11.97.45,1.63,1.73,2.9,3.37,3.34,1.63.44,3.38-.02,4.58-1.2,4.4-4.31,10.51-5.95,16.34-4.39,9.11,2.44,14.49,12.02,11.98,21.36Z"/>
  </g>
</svg>