<?xml version="1.0" encoding="UTF-8"?>
<svg xmlns="http://www.w3.org/2000/svg" version="1.1" viewBox="0 0 800 800">
  <defs>
    <style>
      .cls-1 {
        fill: #fff;
        stroke: #fff;
        stroke-miterlimit: 133.3;
        stroke-width: 33.3px;
      }
    </style>
  </defs>
  <!-- Generator: Adobe Illustrator 28.7.5, SVG Export Plug-In . SVG Version: 1.2.0 Build 176)  -->
  <g>
    <g id="Layer_1">
      <g id="SVGRepo_iconCarrier">
        <path class="cls-1" d="M41.1,41.1c-28,28-28,73.5,0,101.5l257.4,257.4L41.1,657.4c-28,28-28,73.5,0,101.5,28,28,73.5,28,101.5,0l257.4-257.4,257.4,257.4c28,28,73.5,28,101.5,0,28-28,28-73.5,0-101.5l-257.4-257.4,257.4-257.4c28-28,28-73.5,0-101.5-28-28-73.5-28-101.5,0l-257.4,257.4L142.6,41.1c-28-28-73.5-28-101.5,0Z"/>
      </g>
    </g>
  </g>
</svg>