<?xml version="1.0" encoding="UTF-8"?>
<svg id="Layer_1" xmlns="http://www.w3.org/2000/svg" version="1.1" viewBox="0 0 256 256">
  <!-- Generator: Adobe Illustrator 29.5.0, SVG Export Plug-In . SVG Version: 2.1.0 Build 137)  -->
  <defs>
    <style>
      .st0 {
        fill: #fff;
      }
    </style>
  </defs>
  <g id="SVGRepo_iconCarrier">
    <path class="st0" d="M194,26C136.73-10.41,60.94,6.26,24.71,63.24c0,.02-.02.03-.03.05C-11.56,120.27,5.49,195.98,62.75,232.39c57.26,36.41,133.06,19.74,169.29-37.24,0-.02.02-.03.03-.05,36.23-56.98,19.18-132.69-38.08-169.09h0ZM78.95,184.84l-40.47,6.42-20.83-53.03,25.14-30.83,37.01,24.26-.85,53.19h0ZM115.08,12.73h0l-16.22,25.52-47.74,23.83-14-10.84c10.39-17.88,49.17-37.3,56.52-36.54,10.04-5.01,21.87-2.62,21.46-1.97h0ZM201.19,204l-29.01,32.71-47.99,5.78-4.33-31.09,47.82-25.27,33.51,17.88ZM169.19,138.88l-45.17-26.68,10.26-52.75,50.11.18,24.13,47.74-39.32,31.5h0ZM210.47,43.92l-17.58-4.67-19.6-18.96s34.25,15.9,37.17,23.62h0ZM233.06,174.77h0l2.67-47.33,8.6-16.14c3.49,2.22,2.95,52.24-7.18,67.81-6.72,4.04-4.07-4.34-4.07-4.34h0Z"/>
  </g>
</svg>