<?xml version="1.0" encoding="UTF-8"?>
<svg id="Layer_1" xmlns="http://www.w3.org/2000/svg" version="1.1" viewBox="0 0 256 256">
  <!-- Generator: Adobe Illustrator 29.5.0, SVG Export Plug-In . SVG Version: 2.1.0 Build 137)  -->
  <defs>
    <style>
      .st0 {
        fill: none;
        stroke: #fff;
        stroke-miterlimit: 100;
        stroke-width: 11px;
      }
    </style>
  </defs>
  <g id="SVGRepo_iconCarrier">
    <path class="st0" d="M191.87,28.81C136.41-6.46,63.02,9.69,27.94,64.87c0,.02-.02.03-.03.05C-7.18,120.1,9.33,193.41,64.78,228.66c55.45,35.26,128.85,19.11,163.93-36.06,0-.02.02-.03.03-.05,35.08-55.18,18.58-128.49-36.88-163.74h0ZM77.93,183.03l-36.65,5.81-20.17-51.36,24.34-29.86,35.84,23.5c.43,6.89.56,14.52.16,22.77-.53,10.88-1.87,20.66-3.52,29.14ZM115.45,15.96l-15.71,24.72-46.23,23.07-13.56-10.5c6.46-7.36,15.76-16.36,28.47-24.46,7.53-4.8,14.71-8.31,21.03-10.9l11.18-4.59c10.21-2.37,15.71-2.67,16.5-.88.34.78-.21,1.96-1.67,3.54ZM198.84,201.18l-28.09,31.67-46.47,5.59-4.19-30.11,46.31-24.47,32.45,17.31ZM167.84,138.12l-43.74-25.83,9.94-51.08,48.52.17,23.37,46.23-38.07,30.51h0ZM210.63,47.22c-.34.73-3.98.31-19.83-5.58-18.59-17.47-21.97-21.72-21.5-22.27.5-.59,5.28,3.09,19.47,12.55,16.18,10.79,22.36,14.26,21.87,15.3ZM229.7,172.87h0l2.58-45.83,8.32-15.63c3.38,2.15,2.86,50.58-6.96,65.67-6.51,3.91-3.94-4.2-3.94-4.2h0Z"/>
  </g>
</svg>