<?xml version="1.0" encoding="UTF-8"?>
<svg xmlns="http://www.w3.org/2000/svg" version="1.1" viewBox="0 0 800 800">
  <defs>
    <style>
      .cls-1 {
        fill: #fff;
        fill-rule: evenodd;
      }
    </style>
  </defs>
  <!-- Generator: Adobe Illustrator 28.7.5, SVG Export Plug-In . SVG Version: 1.2.0 Build 176)  -->
  <g>
    <g id="Layer_1">
      <g id="SVGRepo_iconCarrier">
        <path class="cls-1" d="M26.5,235.4c-20.5,37.4-20.5,82.5-20.5,172.6v59.9c0,153.7,0,230.5,46.2,278.3,46.2,47.7,120.5,47.7,269,47.7h157.6c148.6,0,222.9,0,269-47.7,46.2-47.7,46.2-124.6,46.2-278.3v-59.9c0-90.2,0-135.2-20.5-172.6-20.5-37.4-57.8-60.6-132.6-107l-78.8-48.9C483.2,30.5,443.7,6,400,6s-83.2,24.5-162.2,73.6l-78.8,48.9c-74.7,46.4-112.1,69.6-132.6,107ZM281.8,606.9c-16.3,0-29.6,13.2-29.6,29.5s13.2,29.6,29.6,29.6h236.4c16.3,0,29.5-13.2,29.5-29.6s-13.2-29.5-29.5-29.5h-236.4Z"/>
      </g>
    </g>
  </g>
</svg>