<?xml version="1.0" encoding="UTF-8"?>
<svg xmlns="http://www.w3.org/2000/svg" version="1.1" viewBox="0 0 711 464">
  <defs>
    <style>
      .cls-1 {
        fill: #fff;
      }
    </style>
  </defs>
  <!-- Generator: Adobe Illustrator 28.7.5, SVG Export Plug-In . SVG Version: 1.2.0 Build 176)  -->
  <g>
    <g id="Slot_x5F_machine">
      <g id="SVGRepo_iconCarrier">
        <g>
          <path class="cls-1" d="M681.3,5.5c-.2,0-.4,0-.6,0H29.4c-.2,0-.4,0-.6,0C15.8,5.5,5.3,106.6,5.3,231.3s10.5,225.8,23.4,225.8h652.6c12.9,0,23.4-101.1,23.4-225.8,0-124.7-10.5-225.8-23.4-225.8ZM625,147.2v171h-151.3v-171h151.3ZM431.2,147.2v171h-151.3v-171h151.3ZM86.2,147.2h151.3v171H86.2v-171Z"/>
          <path class="cls-1" d="M322.3,209.7s2.2-9.2,12.1-7c9.9,2.2,21.6.4,21.6.4-46.2,51.7-36,87.3-36,87.3h41.5c-5-24.1.2-49.3,12.7-70.3,2.1-3.5,24-38.6,24-38.6l-12.8-9.5s-6.2,5.1-18,5.1-15.8-5.1-27.9-5.1-16.5,3.3-16.5,3.3v-3.3h-11.4v37.8h10.6Z"/>
          <path class="cls-1" d="M178.8,176.3c-11.7,0-15.8-5.1-27.9-5.1s-16.5,3.3-16.5,3.3v-3.3h-11.4v37.8h10.6s2.2-9.2,12.1-7,21.7.4,21.7.4c-46.2,51.7-36,87.3-36,87.3h41.5c-5-24.1.2-49.3,12.7-70.3,2.1-3.5,24-38.6,24-38.6l-12.8-9.5s-6.2,5.1-18,5.1Z"/>
          <path class="cls-1" d="M520,209.7s2.2-9.2,12.1-7,21.6.4,21.6.4c-46.2,51.7-36,87.3-36,87.3h41.5c-5-24.1.2-49.3,12.7-70.3,2.1-3.5,24-38.6,24-38.6l-12.8-9.5s-6.2,5.1-18,5.1-15.8-5.1-27.9-5.1-16.5,3.3-16.5,3.3v-3.3h-11.4v37.8h10.6Z"/>
        </g>
      </g>
    </g>
  </g>
</svg>