<?xml version="1.0" encoding="UTF-8"?>
<svg id="Layer_1" xmlns="http://www.w3.org/2000/svg" version="1.1" viewBox="0 0 256 256">
  <!-- Generator: Adobe Illustrator 29.5.0, SVG Export Plug-In . SVG Version: 2.1.0 Build 137)  -->
  <defs>
    <style>
      .st0 {
        fill: #fff;
        stroke: #fff;
        stroke-miterlimit: 133.33;
        stroke-width: 0px;
      }
    </style>
  </defs>
  <g id="SVGRepo_iconCarrier">
    <path class="st0" d="M215.82,55.3l14.28,14.28c4.36,4.21,11.32,4.09,15.53-.27,4.11-4.26,4.11-11,0-15.26l-43.93-43.93c-4.36-4.21-11.32-4.09-15.53.27-4.11,4.26-4.11,11,0,15.26l4.59,4.59c-63.72,5.16-117.96,48.42-137.15,109.4-30.01,4.69-50.53,32.81-45.84,62.82,4.69,30.01,32.81,50.53,62.82,45.84,30.01-4.69,50.53-32.81,45.84-62.82-3.37-21.54-19.14-39.06-40.21-44.66,17.28-49.25,61.82-83.81,113.83-88.31-18.01,25.96-22.32,59.05-11.55,88.75-29.05,8.58-45.65,39.09-37.07,68.14,8.58,29.05,39.09,45.65,68.14,37.07,29.05-8.58,45.65-39.09,37.07-68.14-6.11-20.68-23.77-35.86-45.13-38.8-12.84-28.37-7.17-61.69,14.31-84.23ZM95.13,193.68c0,18.2-14.75,32.95-32.95,32.95s-32.95-14.75-32.95-32.95,14.75-32.95,32.95-32.95,32.95,14.75,32.95,32.95ZM226.92,193.68c0,18.2-14.75,32.95-32.95,32.95s-32.95-14.75-32.95-32.95,14.75-32.95,32.95-32.95,32.95,14.75,32.95,32.95Z"/>
  </g>
</svg>