<?xml version="1.0" encoding="UTF-8"?>
<svg id="Layer_1" xmlns="http://www.w3.org/2000/svg" version="1.1" viewBox="0 0 169.84 170.67">
  <!-- Generator: Adobe Illustrator 29.6.1, SVG Export Plug-In . SVG Version: 2.1.1 Build 9)  -->
  <defs>
    <style>
      .st0 {
        fill: #fff;
      }
    </style>
  </defs>
  <g id="SVGRepo_iconCarrier">
    <path class="st0" d="M144.34,24.75c-7.82-7.88-17.13-14.12-27.38-18.37C106.71,2.13,95.71-.04,84.61,0c-14.84.01-29.41,3.93-42.26,11.35-12.85,7.42-23.53,18.09-30.96,30.93C3.96,55.12.03,69.69,0,84.53c-.03,14.84,3.84,29.43,11.22,42.3L-.72,170.67l44.8-11.73c12.37,6.88,26.27,10.55,40.43,10.67,22.5,0,44.1-8.89,60.08-24.73,15.98-15.84,25.06-37.35,25.26-59.86-.07-11.23-2.37-22.33-6.74-32.67-4.37-10.34-10.75-19.72-18.75-27.59ZM84.61,154.99c-12.61,0-24.99-3.38-35.84-9.81l-2.56-1.6-26.56,7.04,7.04-25.92-1.71-2.67c-9.07-14.65-12.46-32.12-9.52-49.1,2.94-16.98,12.01-32.29,25.49-43.03,13.48-10.74,30.42-16.17,47.63-15.25,17.21.92,33.48,8.11,45.74,20.23,13.4,13.1,21.07,30.97,21.33,49.71-.17,18.73-7.73,36.63-21.03,49.82-13.3,13.18-31.28,20.58-50.01,20.58ZM123.12,102.29c-2.13-1.07-12.48-6.19-14.4-6.83-1.92-.64-3.41-1.07-4.8,1.07-2.09,2.86-4.33,5.6-6.72,8.21-1.17,1.49-2.45,1.6-4.59,0-12.16-4.81-22.3-13.66-28.69-25.07-2.24-3.73,2.13-3.52,6.19-11.52.3-.58.46-1.22.46-1.87s-.16-1.29-.46-1.87c0-1.07-4.8-11.52-6.51-15.68-1.71-4.16-3.41-3.52-4.8-3.63h-4.16c-1.08.02-2.14.26-3.11.72s-1.84,1.12-2.54,1.94c-2.39,2.33-4.26,5.14-5.47,8.25-1.21,3.11-1.75,6.44-1.57,9.78.67,7.98,3.67,15.59,8.64,21.87,9.09,13.61,21.55,24.63,36.16,32,7.66,4.47,16.57,6.34,25.39,5.33,2.94-.58,5.72-1.78,8.16-3.5,2.44-1.73,4.5-3.95,6.03-6.52,1.42-3.14,1.86-6.63,1.28-10.03-.96-1.07-2.35-1.6-4.48-2.67Z"/>
  </g>
</svg>